<svg width="25" height="25" viewBox="0 0 25 25" fill="none" xmlns="http://www.w3.org/2000/svg">
<g clip-path="url(#clip0_2_236)">
<path d="M24.266 10.4448H23.3V10.3968H12.5V15.1968H19.28C18.29 17.9928 15.632 19.9968 12.5 19.9968C8.522 19.9968 5.3 16.7748 5.3 12.7968C5.3 8.81878 8.522 5.59678 12.5 5.59678C14.336 5.59678 16.004 6.28678 17.276 7.42078L20.672 4.02478C18.53 2.02678 15.662 0.796783 12.5 0.796783C5.87 0.796783 0.5 6.16678 0.5 12.7968C0.5 19.4268 5.87 24.7968 12.5 24.7968C19.13 24.7968 24.5 19.4208 24.5 12.7968C24.5 11.9928 24.416 11.2068 24.266 10.4448Z" fill="#FFC107"/>
<path d="M1.88623 7.21078L5.82823 10.1028C6.89623 7.46278 9.47623 5.59678 12.5002 5.59678C14.3362 5.59678 16.0042 6.28678 17.2762 7.42078L20.6722 4.02478C18.5302 2.02678 15.6622 0.796783 12.5002 0.796783C7.89223 0.796783 3.89623 3.40078 1.88623 7.21078Z" fill="#FF3D00"/>
<path d="M12.4998 24.7968C15.6018 24.7968 18.4158 23.6088 20.5458 21.6828L16.8318 18.5388C15.6258 19.4508 14.1318 19.9968 12.4998 19.9968C9.37982 19.9968 6.72782 18.0048 5.73182 15.2268L1.81982 18.2448C3.80582 22.1328 7.83782 24.7968 12.4998 24.7968Z" fill="#4CAF50"/>
<path d="M24.266 10.4448H23.3V10.3968H12.5V15.1968H19.28C18.806 16.5408 17.942 17.6988 16.826 18.5388L20.54 21.6828C20.276 21.9228 24.494 18.7968 24.494 12.7968C24.494 11.9928 24.41 11.2068 24.26 10.4448H24.266Z" fill="#1976D2"/>
</g>
<defs>
<clipPath id="clip0_2_236">
<rect width="24" height="24" fill="white" transform="translate(0.5 0.796783)"/>
</clipPath>
</defs>
</svg>
